<svg height="512" viewBox="0 0 512 512" width="512" xmlns="http://www.w3.org/2000/svg"><g><g><path d="m32 32h224v448h-224z" fill="#e0e0e2"/><g fill="#83d8f4"><path d="m56 64h176v48h-176z"/><path d="m56 144h176v48h-176z"/><path d="m56 224h176v48h-176z"/><path d="m56 304h176v48h-176z"/></g><path d="m112 384h64v96h-64z" fill="#ffda44"/><path d="m256 112h224v368h-224z" fill="#e0e0e2"/><path d="m280 144h176v48h-176z" fill="#83d8f4"/><path d="m280 224h176v48h-176z" fill="#83d8f4"/><path d="m280 304h176v48h-176z" fill="#83d8f4"/><path d="m336 384h64v96h-64z" fill="#ffda44"/></g><g fill="#ff5023"><path d="m32 432h80v48h-80z"/><path d="m400 432h80v48h-80z"/><path d="m176 432h160v48h-160z"/></g><g><path d="m496 472h-8v-360a8 8 0 0 0 -8-8h-216v-72a8 8 0 0 0 -8-8h-224a8 8 0 0 0 -8 8v440h-8a8 8 0 0 0 0 16h480a8 8 0 0 0 0-16zm-392 0h-64v-32h64zm64 0h-48v-80h48zm80 0h-64v-32h64zm0-48h-64v-40a8 8 0 0 0 -8-8h-64a8 8 0 0 0 -8 8v40h-64v-384h208zm80 48h-64v-32h64zm64 0h-48v-80h48zm80 0h-64v-32h64zm0-48h-64v-40a8 8 0 0 0 -8-8h-64a8 8 0 0 0 -8 8v40h-64v-304h208z"/><path d="m56 120h176a8 8 0 0 0 8-8v-48a8 8 0 0 0 -8-8h-176a8 8 0 0 0 -8 8v48a8 8 0 0 0 8 8zm168-48v32h-40v-32zm-56 0v32h-48v-32zm-104 0h40v32h-40z"/><path d="m56 200h176a8 8 0 0 0 8-8v-48a8 8 0 0 0 -8-8h-176a8 8 0 0 0 -8 8v48a8 8 0 0 0 8 8zm168-48v32h-40v-32zm-56 0v32h-48v-32zm-104 0h40v32h-40z"/><path d="m56 280h176a8 8 0 0 0 8-8v-48a8 8 0 0 0 -8-8h-176a8 8 0 0 0 -8 8v48a8 8 0 0 0 8 8zm168-48v32h-40v-32zm-56 0v32h-48v-32zm-104 0h40v32h-40z"/><path d="m232 360a8 8 0 0 0 8-8v-48a8 8 0 0 0 -8-8h-176a8 8 0 0 0 -8 8v48a8 8 0 0 0 8 8zm-8-48v32h-40v-32zm-56 0v32h-48v-32zm-104 0h40v32h-40z"/><path d="m152 416a8 8 0 0 0 -8 8v16a8 8 0 0 0 16 0v-16a8 8 0 0 0 -8-8z"/><path d="m280 200h176a8 8 0 0 0 8-8v-48a8 8 0 0 0 -8-8h-176a8 8 0 0 0 -8 8v48a8 8 0 0 0 8 8zm168-48v32h-40v-32zm-56 0v32h-48v-32zm-104 0h40v32h-40z"/><path d="m280 280h176a8 8 0 0 0 8-8v-48a8 8 0 0 0 -8-8h-176a8 8 0 0 0 -8 8v48a8 8 0 0 0 8 8zm168-48v32h-40v-32zm-56 0v32h-48v-32zm-104 0h40v32h-40z"/><path d="m280 360h176a8 8 0 0 0 8-8v-48a8 8 0 0 0 -8-8h-176a8 8 0 0 0 -8 8v48a8 8 0 0 0 8 8zm168-48v32h-40v-32zm-56 0v32h-48v-32zm-104 0h40v32h-40z"/><path d="m376 416a8 8 0 0 0 -8 8v16a8 8 0 0 0 16 0v-16a8 8 0 0 0 -8-8z"/></g></g></svg>